<?xml version="1.0" encoding="UTF-8"?>
<svg enable-background="new 0 0 500 500" version="1.1" viewBox="0 0 500 500" xml:space="preserve" xmlns="http://www.w3.org/2000/svg"><defs><filter id="filter940" x="0" y="0" width="1" height="1" color-interpolation-filters="sRGB"><feComposite in2="SourceGraphic" k1="0.359281" k2="3.38323" operator="arithmetic" result="composite1"/><feColorMatrix in="composite1" result="colormatrix1" type="saturate" values="1"/><feFlood flood-color="rgb(255,255,18)" result="flood1"/><feBlend in="flood1" in2="colormatrix1" result="blend1"/><feBlend in2="blend1" mode="screen" result="blend2"/><feColorMatrix in="blend2" result="colormatrix2" type="saturate" values="1"/><feComposite in="colormatrix2" in2="SourceGraphic" k2="1" operator="in" result="fbSourceGraphic"/><feColorMatrix in="fbSourceGraphic" result="fbSourceGraphicAlpha" values="0 0 0 -1 0 0 0 0 -1 0 0 0 0 -1 0 0 0 0 1 0"/><feComposite in="fbSourceGraphic" in2="fbSourceGraphic" k1="0.359281" k2="3.38323" operator="arithmetic" result="composite1"/><feColorMatrix in="composite1" result="colormatrix1" type="saturate" values="1"/><feFlood flood-color="rgb(255,255,18)" result="flood1"/><feBlend in="flood1" in2="colormatrix1" result="blend1"/><feBlend in2="blend1" mode="screen" result="blend2"/><feColorMatrix in="blend2" result="colormatrix2" type="saturate" values="1"/><feComposite in="colormatrix2" in2="fbSourceGraphic" k2="1" operator="in" result="composite2"/></filter></defs>
<g filter="url(#filter940)">
	<path d="m266.1 278.4c0.1 0 0.1 0 0.2-0.1 15.1-3.1 29.1-10.6 40.3-21.8s18.6-25.1 21.8-40.3c0-0.1 0-0.1 0.1-0.2 0.5-2.2 0.8-4.5 1-6.8 0-0.4 0.1-0.8 0.2-1.2 0.3-2.7 0.4-5.4 0.4-8.1 0-2.4-0.1-4.8-0.3-7.1-0.1-0.8-0.2-1.5-0.3-2.3-0.2-1.6-0.4-3.2-0.7-4.8-0.2-0.8-0.3-1.7-0.5-2.5-0.4-1.8-0.8-3.5-1.3-5.3-0.2-0.8-0.5-1.7-0.7-2.5-0.6-1.8-1.2-3.5-1.9-5.2-0.3-0.8-0.7-1.6-1-2.4-0.6-1.4-1.3-2.8-2-4.2-0.3-0.7-0.7-1.3-1-2-2.3-4.2-5-8.3-8.1-12-0.2-0.2-0.4-0.4-0.6-0.7-1.6-1.9-3.2-3.7-5-5.5-7.2-7.2-15.7-13-25.4-17.1-4.1-1.7-8.8 0.2-10.5 4.3s0.2 8.8 4.3 10.5c7.8 3.3 14.6 8 20.4 13.7 1.4 1.4 2.7 2.9 4 4.4 0.1 0.2 0.3 0.3 0.4 0.5 2.5 3 4.6 6.3 6.5 9.6 0.3 0.5 0.5 1.1 0.8 1.6 0.6 1.1 1.1 2.3 1.6 3.4 0.3 0.6 0.6 1.3 0.8 1.9 0.6 1.4 1.1 2.8 1.5 4.2 0.2 0.6 0.4 1.3 0.6 1.9 0.4 1.4 0.8 2.8 1.1 4.2 0.1 0.7 0.3 1.3 0.4 2 0.2 1.3 0.4 2.5 0.6 3.8 0.1 0.6 0.2 1.2 0.2 1.8 0.2 1.9 0.3 3.8 0.3 5.7 0 2.2-0.1 4.4-0.3 6.5 0 0.3-0.1 0.6-0.1 0.9-0.2 1.8-0.5 3.7-0.8 5.4v0.2c-5.2 24.8-24.8 44.4-49.6 49.6h-0.2c-1.8 0.4-3.6 0.6-5.4 0.8-0.3 0-0.6 0.1-0.9 0.1-2.1 0.2-4.3 0.3-6.5 0.3s-4.4-0.1-6.5-0.3c-0.3 0-0.6-0.1-0.9-0.1-1.8-0.2-3.7-0.5-5.4-0.8h-0.2c-16.5-3.4-30.6-13.2-39.8-26.6-0.1-0.1-0.2-0.2-0.2-0.3-0.9-1.3-1.7-2.7-2.5-4-0.3-0.5-0.6-0.9-0.8-1.4-0.6-1.1-1.1-2.2-1.6-3.3-0.4-0.8-0.8-1.6-1.1-2.5-0.3-0.8-0.6-1.7-0.9-2.5-0.4-1.2-0.9-2.3-1.2-3.5-0.2-0.5-0.3-1-0.4-1.6-0.4-1.5-0.8-3.1-1.1-4.6v-0.3c-1.1-6-1.4-12-0.8-18v-0.2c0.2-1.9 0.5-3.8 0.8-5.7 0-0.2 0.1-0.3 0.1-0.5 0.8-3.9 1.9-7.8 3.4-11.6 0-0.1 0.1-0.2 0.1-0.3 0.7-1.7 1.5-3.4 2.3-5 0.1-0.2 0.3-0.5 0.4-0.7 1.9-3.5 4.1-6.9 6.7-10.1 0.1-0.1 0.2-0.3 0.3-0.4 1.3-1.6 2.7-3.1 4.1-4.6 5.7-5.8 12.6-10.5 20.4-13.8 4.1-1.7 6-6.4 4.3-10.5s-6.4-6-10.5-4.3c-9.7 4.1-18.3 10-25.4 17.1 0 0 0 0.1-0.1 0.1-1.8 1.8-3.5 3.7-5.2 5.7-0.1 0.2-0.3 0.3-0.4 0.5-3.2 4-6 8.2-8.4 12.7-0.2 0.3-0.3 0.6-0.5 0.9-1.1 2-2 4.1-2.9 6.3-0.1 0.1-0.1 0.3-0.2 0.4-1.9 4.6-3.3 9.5-4.3 14.4 0 0.2-0.1 0.4-0.1 0.6-0.4 2.3-0.8 4.7-1 7.1v0.3c-0.2 2.5-0.4 5-0.4 7.6 0 5.1 0.5 10.1 1.5 14.9 0 0.1 0 0.3 0.1 0.4 0.4 2 0.9 3.9 1.4 5.8 0.2 0.6 0.3 1.3 0.5 1.9 0.5 1.5 1 3 1.6 4.5 0.4 1 0.7 2.1 1.1 3.1 0.4 1.1 1 2.1 1.5 3.1 0.6 1.4 1.3 2.7 2 4.1 0.3 0.6 0.8 1.3 1.1 1.9 1 1.7 1.9 3.3 3 4.9 0.1 0.2 0.3 0.4 0.4 0.6 2.7 4 5.8 7.8 9.4 11.4 11.2 11.2 25.1 18.7 40.3 21.8h0.2c2.3 0.5 4.5 0.8 6.8 1 0.4 0 0.8 0.1 1.1 0.2 2.7 0.3 5.4 0.4 8.1 0.4s5.4-0.1 8.1-0.4c0.4 0 0.8-0.1 1.2-0.2 1.6 0 3.8-0.4 6.1-0.8z"/>
	<path d="m250 208c4.4 0 8-3.6 8-8v-72c0-4.4-3.6-8-8-8s-8 3.6-8 8v72c0 4.4 3.6 8 8 8z"/>
</g>
</svg>
